<svg width="36" height="36" viewBox="0 0 36 36" fill="none" xmlns="http://www.w3.org/2000/svg">
<circle cx="17.9" cy="17.8999" r="17" fill="#F53838"/>
<path d="M17.9 0.5C8.29012 0.5 0.5 8.29012 0.5 17.9C0.5 27.5099 8.29012 35.3 17.9 35.3C27.5099 35.3 35.3 27.5099 35.3 17.9C35.3 8.29012 27.5099 0.5 17.9 0.5ZM22.0216 12.5241H19.4062C19.0962 12.5241 18.7519 12.9319 18.7519 13.4739V15.3625H22.0234L21.5286 18.0559H18.7519V26.1414H15.6652V18.0559H12.8649V15.3625H15.6652V13.7784C15.6652 11.5055 17.2421 9.65856 19.4062 9.65856H22.0216V12.5241Z" fill="white"/>
</svg>
