<svg width="36" height="36" viewBox="0 0 36 36" fill="none" xmlns="http://www.w3.org/2000/svg">
<circle cx="17.9" cy="17.8999" r="17" fill="#F53838"/>
<path d="M23.3375 17.9C23.3375 19.3421 22.7646 20.7252 21.7449 21.7449C20.7252 22.7646 19.3421 23.3375 17.9 23.3375C16.4579 23.3375 15.0748 22.7646 14.0551 21.7449C13.0354 20.7252 12.4625 19.3421 12.4625 17.9C12.4625 17.5901 12.4951 17.2874 12.5513 16.9937H10.65V24.2383C10.65 24.7422 11.0578 25.15 11.5617 25.15H24.2401C24.4816 25.1495 24.713 25.0533 24.8836 24.8823C25.0542 24.7114 25.15 24.4798 25.15 24.2383V16.9937H23.2487C23.3049 17.2874 23.3375 17.5901 23.3375 17.9V17.9ZM17.9 21.525C18.3762 21.5249 18.8476 21.431 19.2875 21.2486C19.7274 21.0663 20.127 20.7991 20.4636 20.4624C20.8002 20.1256 21.0672 19.7258 21.2493 19.2858C21.4315 18.8459 21.5251 18.3743 21.525 17.8982C21.5249 17.422 21.431 16.9506 21.2486 16.5107C21.0663 16.0708 20.7991 15.6712 20.4624 15.3346C20.1256 14.9979 19.7258 14.731 19.2858 14.5488C18.8459 14.3667 18.3743 14.2731 17.8982 14.2732C16.9365 14.2734 16.0144 14.6557 15.3346 15.3358C14.6547 16.016 14.2729 16.9383 14.2732 17.9C14.2734 18.8616 14.6557 19.7838 15.3358 20.4636C16.016 21.1435 16.9383 21.5252 17.9 21.525V21.525ZM22.25 14.0937H24.4232C24.5676 14.0937 24.7061 14.0365 24.8083 13.9346C24.9106 13.8327 24.9683 13.6944 24.9687 13.55V11.3768C24.9687 11.2321 24.9113 11.0934 24.809 10.991C24.7066 10.8887 24.5679 10.8312 24.4232 10.8312H22.25C22.1053 10.8312 21.9665 10.8887 21.8642 10.991C21.7619 11.0934 21.7044 11.2321 21.7044 11.3768V13.55C21.7062 13.8491 21.9509 14.0937 22.25 14.0937V14.0937ZM17.9 0.5C13.2852 0.5 8.85947 2.33321 5.59634 5.59634C2.33321 8.85947 0.5 13.2852 0.5 17.9C0.5 22.5148 2.33321 26.9405 5.59634 30.2037C8.85947 33.4668 13.2852 35.3 17.9 35.3C20.185 35.3 22.4476 34.8499 24.5587 33.9755C26.6698 33.1011 28.5879 31.8194 30.2037 30.2037C31.8194 28.5879 33.1011 26.6698 33.9755 24.5587C34.8499 22.4476 35.3 20.185 35.3 17.9C35.3 15.615 34.8499 13.3524 33.9755 11.2413C33.1011 9.13024 31.8194 7.21208 30.2037 5.59634C28.5879 3.9806 26.6698 2.69893 24.5587 1.8245C22.4476 0.950064 20.185 0.5 17.9 0.5V0.5ZM26.9625 24.9488C26.9625 26.0562 26.0562 26.9625 24.9488 26.9625H10.8512C9.74375 26.9625 8.8375 26.0562 8.8375 24.9488V10.8512C8.8375 9.74375 9.74375 8.8375 10.8512 8.8375H24.9488C26.0562 8.8375 26.9625 9.74375 26.9625 10.8512V24.9488V24.9488Z" fill="white"/>
</svg>
