<svg width="147" height="37" viewBox="0 0 147 37" fill="none" xmlns="http://www.w3.org/2000/svg">
<path d="M47.0401 25.5C46.9068 25.5 46.7934 25.4533 46.7001 25.36C46.6068 25.2667 46.5601 25.1533 46.5601 25.02V11.98C46.5601 11.8333 46.6068 11.72 46.7001 11.64C46.7934 11.5467 46.9068 11.5 47.0401 11.5H48.9201C49.0668 11.5 49.1801 11.5467 49.2601 11.64C49.3534 11.72 49.4001 11.8333 49.4001 11.98V23.1H55.7401C55.8868 23.1 56.0068 23.1467 56.1001 23.24C56.1934 23.3333 56.2401 23.4467 56.2401 23.58V25.02C56.2401 25.1533 56.1934 25.2667 56.1001 25.36C56.0068 25.4533 55.8868 25.5 55.7401 25.5H47.0401ZM60.9612 25.7C60.2812 25.7 59.6545 25.5667 59.0812 25.3C58.5212 25.02 58.0745 24.6467 57.7412 24.18C57.4212 23.7133 57.2612 23.2 57.2612 22.64C57.2612 21.7333 57.6279 21 58.3612 20.44C59.0945 19.88 60.1012 19.5 61.3812 19.3L64.1212 18.9V18.48C64.1212 17.9067 63.9745 17.4733 63.6812 17.18C63.3879 16.8867 62.9212 16.74 62.2812 16.74C61.8412 16.74 61.4879 16.82 61.2212 16.98C60.9545 17.14 60.7345 17.3067 60.5612 17.48C60.4012 17.64 60.2945 17.7467 60.2412 17.8C60.1879 17.96 60.0879 18.04 59.9412 18.04H58.3812C58.2612 18.04 58.1545 18 58.0612 17.92C57.9812 17.84 57.9412 17.7333 57.9412 17.6C57.9545 17.2667 58.1145 16.8933 58.4212 16.48C58.7412 16.0533 59.2279 15.6867 59.8812 15.38C60.5345 15.06 61.3412 14.9 62.3012 14.9C63.8745 14.9 65.0212 15.2533 65.7412 15.96C66.4612 16.6667 66.8212 17.5933 66.8212 18.74V25.02C66.8212 25.1533 66.7745 25.2667 66.6812 25.36C66.6012 25.4533 66.4879 25.5 66.3412 25.5H64.6812C64.5479 25.5 64.4345 25.4533 64.3412 25.36C64.2479 25.2667 64.2012 25.1533 64.2012 25.02V24.24C63.9079 24.6667 63.4945 25.02 62.9612 25.3C62.4279 25.5667 61.7612 25.7 60.9612 25.7ZM61.6412 23.78C62.3745 23.78 62.9745 23.54 63.4412 23.06C63.9079 22.58 64.1412 21.8867 64.1412 20.98V20.58L62.1412 20.9C60.6079 21.14 59.8412 21.6533 59.8412 22.44C59.8412 22.8667 60.0145 23.2 60.3612 23.44C60.7212 23.6667 61.1479 23.78 61.6412 23.78ZM73.3465 25.7C72.3332 25.7 71.4865 25.5467 70.8065 25.24C70.1265 24.9333 69.6198 24.58 69.2865 24.18C68.9665 23.7667 68.8065 23.4133 68.8065 23.12C68.8065 22.9867 68.8465 22.88 68.9265 22.8C69.0198 22.72 69.1265 22.68 69.2465 22.68H70.8865C70.9932 22.68 71.0865 22.7333 71.1665 22.84C71.2332 22.8933 71.3798 23.02 71.6065 23.22C71.8465 23.42 72.1132 23.58 72.4065 23.7C72.7132 23.8067 73.0465 23.86 73.4065 23.86C73.9398 23.86 74.3732 23.76 74.7065 23.56C75.0398 23.3467 75.2065 23.0467 75.2065 22.66C75.2065 22.3933 75.1265 22.18 74.9665 22.02C74.8198 21.8467 74.5465 21.6933 74.1465 21.56C73.7598 21.4133 73.1732 21.2533 72.3865 21.08C71.2532 20.84 70.4132 20.4733 69.8665 19.98C69.3332 19.4867 69.0665 18.8333 69.0665 18.02C69.0665 17.4867 69.2265 16.9867 69.5465 16.52C69.8665 16.04 70.3398 15.6533 70.9665 15.36C71.6065 15.0533 72.3665 14.9 73.2465 14.9C74.1532 14.9 74.9332 15.0467 75.5865 15.34C76.2398 15.62 76.7332 15.96 77.0665 16.36C77.4132 16.76 77.5865 17.1133 77.5865 17.42C77.5865 17.54 77.5398 17.6467 77.4465 17.74C77.3665 17.82 77.2665 17.86 77.1465 17.86H75.6465C75.4998 17.86 75.3865 17.8067 75.3065 17.7C75.2132 17.6333 75.0598 17.5133 74.8465 17.34C74.6465 17.1533 74.4198 17.0067 74.1665 16.9C73.9132 16.7933 73.6065 16.74 73.2465 16.74C72.7532 16.74 72.3732 16.8467 72.1065 17.06C71.8398 17.2733 71.7065 17.5533 71.7065 17.9C71.7065 18.14 71.7665 18.34 71.8865 18.5C72.0198 18.66 72.2798 18.8133 72.6665 18.96C73.0532 19.0933 73.6332 19.2333 74.4065 19.38C76.8065 19.8467 78.0065 20.8933 78.0065 22.52C78.0065 23.4667 77.5932 24.2333 76.7665 24.82C75.9532 25.4067 74.8132 25.7 73.3465 25.7ZM80.5506 25.5C80.4172 25.5 80.3039 25.4533 80.2106 25.36C80.1172 25.2667 80.0706 25.1533 80.0706 25.02V11.78C80.0706 11.6333 80.1172 11.52 80.2106 11.44C80.3039 11.3467 80.4172 11.3 80.5506 11.3H82.2306C82.3772 11.3 82.4906 11.3467 82.5706 11.44C82.6639 11.52 82.7106 11.6333 82.7106 11.78V25.02C82.7106 25.1533 82.6639 25.2667 82.5706 25.36C82.4906 25.4533 82.3772 25.5 82.2306 25.5H80.5506ZM89.8631 25.7C88.3697 25.7 87.1831 25.2733 86.3031 24.42C85.4364 23.5667 84.9764 22.3533 84.9231 20.78L84.9031 20.28C84.9031 18.6133 85.3364 17.3 86.2031 16.34C87.0831 15.38 88.2964 14.9 89.8431 14.9C91.4297 14.9 92.6497 15.38 93.5031 16.34C94.3697 17.3 94.8031 18.58 94.8031 20.18V20.6C94.8031 20.7333 94.7564 20.8467 94.6631 20.94C94.5697 21.0333 94.4497 21.08 94.3031 21.08H87.6631V21.24C87.6897 21.9867 87.8897 22.6067 88.2631 23.1C88.6497 23.58 89.1764 23.82 89.8431 23.82C90.6031 23.82 91.2231 23.5133 91.7031 22.9C91.8231 22.7533 91.9164 22.6667 91.9831 22.64C92.0497 22.6 92.1631 22.58 92.3231 22.58H94.0831C94.2031 22.58 94.3031 22.6133 94.3831 22.68C94.4764 22.7467 94.5231 22.84 94.5231 22.96C94.5231 23.28 94.3297 23.66 93.9431 24.1C93.5697 24.5267 93.0297 24.9 92.3231 25.22C91.6164 25.54 90.7964 25.7 89.8631 25.7ZM92.0431 19.38V19.34C92.0431 18.5533 91.8431 17.9267 91.4431 17.46C91.0564 16.98 90.5231 16.74 89.8431 16.74C89.1631 16.74 88.6297 16.98 88.2431 17.46C87.8564 17.9267 87.6631 18.5533 87.6631 19.34V19.38H92.0431ZM100.885 25.7C99.8722 25.7 99.0256 25.5467 98.3456 25.24C97.6656 24.9333 97.1589 24.58 96.8256 24.18C96.5056 23.7667 96.3456 23.4133 96.3456 23.12C96.3456 22.9867 96.3856 22.88 96.4656 22.8C96.5589 22.72 96.6656 22.68 96.7856 22.68H98.4256C98.5322 22.68 98.6256 22.7333 98.7056 22.84C98.7722 22.8933 98.9189 23.02 99.1456 23.22C99.3856 23.42 99.6522 23.58 99.9456 23.7C100.252 23.8067 100.585 23.86 100.945 23.86C101.479 23.86 101.912 23.76 102.245 23.56C102.579 23.3467 102.745 23.0467 102.745 22.66C102.745 22.3933 102.665 22.18 102.505 22.02C102.359 21.8467 102.085 21.6933 101.685 21.56C101.299 21.4133 100.712 21.2533 99.9256 21.08C98.7922 20.84 97.9522 20.4733 97.4056 19.98C96.8722 19.4867 96.6056 18.8333 96.6056 18.02C96.6056 17.4867 96.7656 16.9867 97.0856 16.52C97.4056 16.04 97.8789 15.6533 98.5056 15.36C99.1456 15.0533 99.9056 14.9 100.785 14.9C101.692 14.9 102.472 15.0467 103.125 15.34C103.779 15.62 104.272 15.96 104.605 16.36C104.952 16.76 105.125 17.1133 105.125 17.42C105.125 17.54 105.079 17.6467 104.985 17.74C104.905 17.82 104.805 17.86 104.685 17.86H103.185C103.039 17.86 102.925 17.8067 102.845 17.7C102.752 17.6333 102.599 17.5133 102.385 17.34C102.185 17.1533 101.959 17.0067 101.705 16.9C101.452 16.7933 101.145 16.74 100.785 16.74C100.292 16.74 99.9122 16.8467 99.6456 17.06C99.3789 17.2733 99.2456 17.5533 99.2456 17.9C99.2456 18.14 99.3056 18.34 99.4256 18.5C99.5589 18.66 99.8189 18.8133 100.205 18.96C100.592 19.0933 101.172 19.2333 101.945 19.38C104.345 19.8467 105.545 20.8933 105.545 22.52C105.545 23.4667 105.132 24.2333 104.305 24.82C103.492 25.4067 102.352 25.7 100.885 25.7ZM111.63 25.5C111.403 25.5 111.216 25.4467 111.07 25.34C110.936 25.22 110.843 25.0733 110.79 24.9L106.75 12.1L106.71 11.92C106.71 11.8133 106.75 11.72 106.83 11.64C106.923 11.5467 107.03 11.5 107.15 11.5H109.77C109.97 11.5 110.13 11.56 110.25 11.68C110.383 11.7867 110.47 11.9067 110.51 12.04L113.23 21.08L115.97 12.04C116.01 11.8933 116.09 11.7667 116.21 11.66C116.343 11.5533 116.51 11.5 116.71 11.5H119.33C119.45 11.5 119.55 11.5467 119.63 11.64C119.71 11.72 119.75 11.8133 119.75 11.92C119.75 11.9867 119.743 12.0467 119.73 12.1L115.67 24.9C115.63 25.0733 115.536 25.22 115.39 25.34C115.256 25.4467 115.076 25.5 114.85 25.5H111.63ZM122.075 25.5C121.942 25.5 121.822 25.4533 121.715 25.36C121.622 25.2533 121.575 25.1333 121.575 25V12.02C121.575 11.8733 121.622 11.7533 121.715 11.66C121.808 11.5533 121.928 11.5 122.075 11.5H127.735C129.468 11.5 130.828 11.8933 131.815 12.68C132.802 13.4667 133.295 14.62 133.295 16.14C133.295 17.66 132.802 18.8 131.815 19.56C130.828 20.3067 129.468 20.68 127.735 20.68H125.455V25C125.455 25.1333 125.408 25.2533 125.315 25.36C125.222 25.4533 125.102 25.5 124.955 25.5H122.075ZM127.635 17.82C128.182 17.82 128.608 17.68 128.915 17.4C129.235 17.1067 129.395 16.68 129.395 16.12C129.395 15.6 129.248 15.18 128.955 14.86C128.675 14.54 128.235 14.38 127.635 14.38H125.395V17.82H127.635ZM135.649 25.5C135.516 25.5 135.396 25.4533 135.289 25.36C135.196 25.2533 135.149 25.1333 135.149 25V12.02C135.149 11.8733 135.196 11.7533 135.289 11.66C135.382 11.5533 135.502 11.5 135.649 11.5H137.909C138.216 11.5 138.442 11.6267 138.589 11.88L143.309 19.34V12.02C143.309 11.8733 143.356 11.7533 143.449 11.66C143.542 11.5533 143.662 11.5 143.809 11.5H146.349C146.496 11.5 146.616 11.5533 146.709 11.66C146.802 11.7533 146.849 11.8733 146.849 12.02V24.98C146.849 25.1267 146.802 25.2533 146.709 25.36C146.616 25.4533 146.496 25.5 146.349 25.5H144.089C143.782 25.5 143.556 25.3733 143.409 25.12L138.709 17.96V25C138.709 25.1467 138.656 25.2667 138.549 25.36C138.456 25.4533 138.336 25.5 138.189 25.5H135.649Z" fill="#0B132A"/>
<path d="M31.1473 14.0315L31.1255 14.0098C31.1238 14.0085 31.1224 14.0069 31.1215 14.005L17.5006 0.383789L3.87983 14.0047C3.87826 14.0063 3.8758 14.0094 3.8758 14.0094L3.85333 14.0312C1.77053 16.1257 0.447586 18.8563 0.0948175 21.789C-0.25795 24.7217 0.379698 27.6882 1.90639 30.2169C3.43309 32.7457 5.76122 34.6915 8.52069 35.745C11.2802 36.7985 14.3126 36.8995 17.136 36.0315C17.3735 35.9589 17.6275 35.9589 17.8651 36.0315C20.6882 36.8991 23.7205 36.7982 26.4798 35.7445C29.2391 34.6908 31.567 32.7451 33.0936 30.2166C34.6202 27.688 35.2579 24.7217 34.9053 21.7892C34.5526 18.8566 33.2299 16.126 31.1473 14.0315ZM8.7232 23.0136C8.65689 23.0799 8.6043 23.1587 8.56844 23.2452C8.53257 23.3318 8.5141 23.4246 8.51412 23.5184C8.53835 25.9224 9.21776 28.2742 10.4792 30.3209C10.5079 30.3673 10.5211 30.4216 10.517 30.476C10.513 30.5303 10.4918 30.582 10.4566 30.6237C10.4213 30.6654 10.3738 30.6948 10.3209 30.7078C10.2679 30.7208 10.2122 30.7168 10.1616 30.6962C9.21332 30.2973 8.35182 29.7174 7.62531 28.9891C6.13646 27.5 5.29946 25.4808 5.2981 23.375C5.29675 21.2693 6.13117 19.249 7.61812 17.7581L17.5006 7.87652L27.3826 17.7581C28.8698 19.2488 29.7045 21.2691 29.703 23.375C29.7018 25.4808 28.8647 27.5 27.3757 28.9891C26.6492 29.7174 25.7877 30.2973 24.8396 30.6962C24.7889 30.7168 24.7332 30.7208 24.6802 30.7078C24.6273 30.6948 24.5798 30.6652 24.5445 30.6237C24.5093 30.582 24.488 30.5303 24.484 30.4758C24.4799 30.4215 24.4931 30.3671 24.5218 30.3207C25.7835 28.2742 26.4633 25.9224 26.4879 23.5184C26.4879 23.4246 26.4692 23.3318 26.4332 23.2451C26.3971 23.1584 26.3444 23.0797 26.2779 23.0134L21.6037 18.0555C21.5571 18.0167 21.4985 17.9954 21.4378 17.9954C21.3773 17.9954 21.3186 18.0167 21.2721 18.0555C21.2255 18.0942 21.1942 18.1482 21.1833 18.2078C21.1724 18.2675 21.1828 18.3288 21.2127 18.3816C23.0281 21.6668 21.467 26.3855 18.8637 28.9891L18.85 29.0029C18.4907 29.3583 18.0056 29.5576 17.5002 29.5574C16.9948 29.5572 16.5098 29.3576 16.1508 29.002L16.1382 28.9891C13.5339 26.3855 11.9736 21.6673 13.7893 18.3823C13.8192 18.3295 13.8296 18.2682 13.8187 18.2085C13.8079 18.1489 13.7764 18.0949 13.7299 18.0562C13.6834 18.0174 13.6247 17.9961 13.5642 17.9961C13.5036 17.9961 13.4449 18.0174 13.3984 18.0562L8.7232 23.0136Z" fill="#F53838"/>
</svg>
