<svg width="36" height="36" viewBox="0 0 36 36" fill="none" xmlns="http://www.w3.org/2000/svg">
<path d="M18.023 34.8848C27.4119 34.8848 35.023 27.2736 35.023 17.8848C35.023 8.49592 27.4119 0.884766 18.023 0.884766C8.63417 0.884766 1.02301 8.49592 1.02301 17.8848C1.02301 27.2736 8.63417 34.8848 18.023 34.8848Z" fill="#F53838"/>
<path d="M18.023 0.484131C8.41308 0.484131 0.623001 8.27421 0.623001 17.8841C0.623001 27.494 8.41308 35.2841 18.023 35.2841C27.6329 35.2841 35.423 27.494 35.423 17.8841C35.423 8.27421 27.6329 0.484131 18.023 0.484131ZM25.1008 14.7376C25.1081 14.8862 25.1099 15.0349 25.1099 15.1799C25.1099 19.7111 21.6643 24.933 15.3604 24.933C13.4977 24.936 11.6737 24.401 10.1078 23.3924C10.3743 23.4249 10.648 23.4376 10.9252 23.4376C12.5312 23.4376 14.0083 22.8921 15.181 21.9713C14.4663 21.9573 13.7739 21.7206 13.2001 21.2944C12.6263 20.8681 12.1999 20.2735 11.9801 19.5933C12.4934 19.6909 13.022 19.6705 13.5262 19.5335C12.7505 19.3766 12.053 18.9564 11.5518 18.3439C11.0507 17.7314 10.7768 16.9645 10.7766 16.1731V16.1314C11.2388 16.387 11.7681 16.5429 12.3299 16.561C11.6028 16.077 11.088 15.3334 10.8908 14.4823C10.6938 13.6313 10.8293 12.7371 11.2697 11.9827C12.1304 13.0411 13.204 13.907 14.4208 14.5243C15.6376 15.1416 16.9703 15.4964 18.3329 15.5659C18.1597 14.8306 18.2343 14.0587 18.545 13.3701C18.8557 12.6815 19.3853 12.1149 20.0513 11.7584C20.7173 11.4018 21.4824 11.2753 22.2278 11.3984C22.9731 11.5216 23.6569 11.8875 24.1728 12.4394C24.9398 12.2877 25.6753 12.0063 26.3478 11.6074C26.0922 12.4016 25.557 13.0759 24.8417 13.5052C25.5211 13.4233 26.1844 13.2407 26.81 12.9632C26.3505 13.6517 25.7717 14.2526 25.1008 14.7376Z" fill="white"/>
</svg>
